<svg width="1920" height="1080" viewBox="0 0 1920 1080" fill="none" xmlns="http://www.w3.org/2000/svg">
<path d="M1920 1080H0V0H1920V1080ZM1119.53 504.05C1111.03 504.05 1103.38 508.4 1096.58 517.1C1096.18 513.2 1094.53 510.15 1091.63 507.95C1088.83 505.75 1085.23 504.65 1080.83 504.65C1074.63 504.65 1068.68 505.55 1062.98 507.35C1057.28 509.05 1054.13 511.05 1053.53 513.35C1053.23 514.35 1053.28 515.15 1053.68 515.75C1054.08 516.35 1054.78 517.05 1055.78 517.85C1056.78 518.55 1057.53 519.25 1058.03 519.95C1058.53 520.55 1058.78 521.4 1058.78 522.5C1058.78 523.1 1058.63 523.85 1058.33 524.75L1036.43 596.6C1035.73 598.899 1034.93 600.55 1034.03 601.55C1033.13 602.65 1031.93 603.7 1030.43 604.7C1029.53 605.1 1028.83 605.55 1028.33 606.05C1027.83 606.55 1027.48 607.2 1027.28 608C1026.78 609.3 1027.13 610.35 1028.33 611.15C1029.43 612.05 1031.28 612.5 1033.88 612.5H1068.23C1071.33 612.5 1073.63 612.2 1075.13 611.6C1076.63 611.1 1077.58 610.2 1077.98 608.9C1078.18 608.2 1078.13 607.6 1077.83 607.1C1077.63 606.6 1077.13 605.95 1076.33 605.15C1075.53 604.45 1074.88 603.7 1074.38 602.9C1073.88 602.2 1073.63 601.3 1073.63 600.2C1073.63 599.2 1073.83 598.15 1074.23 597.05L1079.03 581C1084.13 583.9 1090.13 585.35 1097.03 585.35C1107.83 585.35 1117.33 582.15 1125.53 575.75C1133.73 569.25 1139.33 559.8 1142.33 547.4C1143.63 542.2 1144.28 537.25 1144.28 532.55C1144.28 523.75 1142.08 516.8 1137.68 511.7C1133.28 506.6 1127.23 504.05 1119.53 504.05ZM476.43 553.7C472.13 553.7 468.479 555.35 465.479 558.65C462.58 561.95 461.129 565.9 461.129 570.5C461.129 572.9 461.48 574.95 462.18 576.65C462.98 578.25 464.129 580.05 465.629 582.05C467.229 584.05 468.029 585.65 468.029 586.85C468.029 588.35 467.429 589.75 466.229 591.05C465.029 592.45 463.329 594 461.129 595.7C459.029 597.3 457.429 598.7 456.329 599.9C455.229 601.1 454.68 602.351 454.68 603.65C454.68 605.95 456.329 607.1 459.629 607.1C463.929 607.1 468.679 605.45 473.879 602.15C479.079 598.85 483.479 594.45 487.079 588.95C490.779 583.45 492.629 577.55 492.629 571.25C492.629 565.95 491.079 561.7 487.979 558.5C484.88 555.3 481.03 553.7 476.43 553.7ZM774.812 504.65C769.013 504.65 763.662 506 758.762 508.7C753.862 511.3 749.262 516 744.962 522.8C744.562 517.4 742.512 513.05 738.812 509.75C735.212 506.35 730.512 504.65 724.712 504.65C719.412 504.65 714.462 505.75 709.862 507.95C705.362 510.15 701.062 514.1 696.962 519.8C697.062 515.1 695.662 511.4 692.762 508.7C689.962 506 686.112 504.65 681.212 504.65C675.012 504.65 669.062 505.55 663.362 507.35C657.663 509.05 654.512 511.05 653.912 513.35C653.612 514.35 653.663 515.15 654.062 515.75C654.462 516.35 655.162 517.05 656.162 517.85C657.162 518.749 657.862 519.5 658.262 520.1C658.762 520.7 659.012 521.55 659.012 522.65C659.012 523.55 658.912 524.25 658.712 524.75L645.362 568.1C644.662 570.499 643.812 572.25 642.812 573.35C641.813 574.45 640.562 575.4 639.062 576.2C637.363 577.1 636.312 578.15 635.912 579.35C635.612 580.749 636.062 581.9 637.262 582.8C638.362 583.6 640.212 584 642.812 584H677.012C680.212 584 682.562 583.7 684.062 583.1C685.562 582.5 686.512 581.55 686.912 580.25C687.112 579.55 687.062 578.95 686.762 578.45C686.462 577.95 685.962 577.4 685.262 576.8C684.362 576 683.662 575.25 683.162 574.55C682.662 573.75 682.412 572.75 682.412 571.55C682.412 570.55 682.612 569.5 683.012 568.4L692.912 536.3C694.112 533.1 695.612 530.8 697.412 529.4C699.212 527.9 700.962 527.15 702.662 527.15C703.862 527.15 704.862 527.55 705.662 528.35C706.562 529.05 707.012 530.05 707.012 531.35C707.012 532.15 706.762 533.2 706.262 534.5L698.012 556.1C696.212 560.7 695.313 564.85 695.312 568.55C695.413 573.65 697.412 577.75 701.312 580.85C705.212 583.85 710.463 585.35 717.062 585.35C722.462 585.35 727.062 584.5 730.862 582.8C734.762 581 737.712 578.75 739.712 576.05C741.712 573.25 742.663 570.4 742.562 567.5C742.562 566.6 742.412 565.85 742.112 565.25C741.812 564.55 741.412 564.2 740.912 564.2C740.612 564.2 740.012 564.75 739.112 565.85C738.312 566.85 737.312 567.35 736.112 567.35C735.512 567.35 735.012 567.15 734.612 566.75C734.312 566.35 734.162 565.8 734.162 565.1C734.162 564.3 734.262 563.7 734.462 563.3L742.712 536.45C744.112 533.25 745.712 530.9 747.512 529.4C749.312 527.901 751.062 527.151 752.762 527.15C753.962 527.15 754.962 527.55 755.762 528.35C756.662 529.05 757.112 530.05 757.112 531.35C757.112 532.15 756.862 533.2 756.362 534.5L748.112 556.1C746.312 560.7 745.412 564.85 745.412 568.55C745.512 573.65 747.512 577.75 751.412 580.85C755.312 583.85 760.562 585.35 767.162 585.35C772.562 585.35 777.162 584.5 780.962 582.8C784.862 581 787.812 578.75 789.812 576.05C791.812 573.25 792.762 570.4 792.662 567.5C792.662 566.6 792.512 565.85 792.212 565.25C791.912 564.55 791.512 564.2 791.012 564.2C790.712 564.201 790.111 564.75 789.212 565.85C788.412 566.85 787.412 567.35 786.212 567.35C785.612 567.35 785.112 567.15 784.712 566.75C784.412 566.35 784.262 565.8 784.262 565.1C784.262 564.3 784.363 563.7 784.562 563.3L793.712 533.75C794.712 530.75 795.212 527.7 795.212 524.6C795.212 518.7 793.312 513.9 789.512 510.2C785.812 506.5 780.912 504.65 774.812 504.65ZM860.319 484.1C857.52 484.1 855.42 484.4 854.02 485C852.72 485.5 851.869 486.4 851.469 487.7C851.269 488.5 851.169 489.05 851.169 489.35C851.169 490.15 851.62 491.2 852.52 492.5C853.119 493.5 853.569 494.4 853.869 495.2C854.269 495.9 854.469 496.8 854.469 497.9C854.469 499.1 854.269 500.351 853.869 501.65L835.569 566.3C834.969 568.6 834.169 570.3 833.169 571.4C832.169 572.5 830.819 573.55 829.119 574.55C828.019 575.25 827.219 575.9 826.719 576.5C826.119 577 825.72 577.7 825.52 578.6C825.12 580.3 825.569 581.65 826.869 582.65C828.169 583.55 830.119 584 832.719 584H870.369C873.469 584 875.819 583.65 877.419 582.95C879.019 582.25 879.819 581.05 879.819 579.35C879.819 578.65 879.569 578 879.069 577.4C878.569 576.7 877.869 576 876.969 575.3C875.769 574.2 874.819 573.15 874.119 572.15C873.419 571.15 873.069 569.95 873.069 568.55C873.069 567.65 873.169 566.9 873.369 566.3L880.27 541.4H885.969C889.369 541.4 891.819 541.9 893.319 542.9C894.919 543.9 895.719 545.55 895.719 547.85C895.719 549.25 895.519 550.6 895.119 551.9L892.719 561.5C892.119 563.9 891.819 566.15 891.819 568.25C891.819 573.75 893.769 578 897.669 581C901.569 583.9 906.819 585.35 913.419 585.35C918.619 585.35 923.019 584.65 926.619 583.25C930.319 581.75 933.169 579.9 935.169 577.7C937.169 575.5 938.37 573.25 938.77 570.95C939.07 569.35 938.719 568.25 937.719 567.65C936.819 567.05 935.319 566.75 933.219 566.75C932.119 566.75 931.269 566.45 930.669 565.85C930.069 565.15 929.77 564.149 929.77 562.85C929.77 562.45 929.869 561.75 930.069 560.75L931.719 553.4C932.219 551.2 932.469 549.35 932.469 547.85C932.469 543.95 931.269 540.8 928.869 538.4C926.469 536 922.869 534.6 918.069 534.2C924.769 533.4 930.319 531.4 934.719 528.2C939.119 524.9 942.119 520.35 943.719 514.55C944.319 512.45 944.619 510.35 944.619 508.25C944.619 503.65 943.219 499.55 940.419 495.95C937.719 492.25 933.769 489.35 928.569 487.25C923.469 485.15 917.469 484.1 910.569 484.1H860.319ZM1192.64 473.15C1186.44 473.15 1180.49 474 1174.79 475.7C1169.09 477.4 1165.94 479.4 1165.34 481.7C1165.04 482.7 1165.09 483.5 1165.49 484.1C1165.99 484.7 1166.74 485.4 1167.74 486.2C1168.64 486.9 1169.34 487.6 1169.84 488.3C1170.44 489 1170.74 489.9 1170.74 491C1170.74 491.6 1170.59 492.35 1170.29 493.25L1147.49 568.1C1146.79 570.499 1145.94 572.25 1144.94 573.35C1143.94 574.45 1142.69 575.4 1141.19 576.2C1139.49 577.1 1138.44 578.15 1138.04 579.35C1137.64 580.75 1138.04 581.9 1139.24 582.8C1140.44 583.6 1142.34 584 1144.94 584H1179.14C1182.24 584 1184.54 583.7 1186.04 583.1C1187.54 582.5 1188.54 581.55 1189.04 580.25C1189.24 579.55 1189.19 579 1188.89 578.6C1188.59 578.1 1188.09 577.5 1187.39 576.8C1186.49 576.1 1185.79 575.4 1185.29 574.7C1184.79 573.9 1184.54 572.85 1184.54 571.55C1184.54 570.65 1184.69 569.6 1184.99 568.4L1194.44 537.95V538.25C1195.64 534.35 1197.19 531.55 1199.09 529.85C1201.09 528.05 1203.04 527.15 1204.94 527.15C1206.14 527.15 1207.14 527.55 1207.94 528.35C1208.84 529.05 1209.29 530.05 1209.29 531.35C1209.29 532.15 1209.04 533.2 1208.54 534.5L1200.29 556.1C1198.49 560.7 1197.59 564.85 1197.59 568.55C1197.69 573.65 1199.69 577.75 1203.59 580.85C1207.49 583.85 1212.74 585.35 1219.34 585.35C1224.74 585.35 1229.34 584.5 1233.14 582.8C1237.04 581 1239.99 578.75 1241.99 576.05C1243.99 573.25 1244.94 570.4 1244.84 567.5C1244.84 566.6 1244.69 565.85 1244.39 565.25C1244.09 564.55 1243.69 564.2 1243.19 564.2C1242.89 564.2 1242.29 564.75 1241.39 565.85C1240.59 566.85 1239.59 567.35 1238.39 567.35C1237.79 567.35 1237.29 567.15 1236.89 566.75C1236.59 566.35 1236.44 565.799 1236.44 565.1C1236.44 564.3 1236.54 563.7 1236.74 563.3L1245.89 533.75C1246.89 530.75 1247.39 527.7 1247.39 524.6C1247.39 518.7 1245.49 513.9 1241.69 510.2C1237.99 506.5 1233.09 504.65 1226.99 504.65C1221.89 504.65 1217.14 505.65 1212.74 507.65C1208.44 509.65 1204.34 513.2 1200.44 518.3L1208.54 491.9C1209.24 489.8 1209.59 487.65 1209.59 485.45C1209.59 481.65 1208.19 478.65 1205.39 476.45C1202.69 474.25 1198.44 473.15 1192.64 473.15ZM996.487 504.65C984.988 504.65 976.438 506.3 970.838 509.6C965.238 512.9 962.438 517.05 962.438 522.05C962.438 525.25 963.787 527.95 966.487 530.15C969.287 532.25 973.137 533.3 978.037 533.3C983.237 533.3 987.237 531.95 990.037 529.25C992.837 526.55 994.237 523.35 994.237 519.65C994.237 517.95 993.938 516.3 993.338 514.7C996.438 514.7 998.737 515.3 1000.24 516.5C1001.74 517.7 1002.54 519.5 1002.64 521.9C1002.64 524.2 1001.99 527.451 1000.69 531.65L996.938 541.55C988.938 538.95 980.787 537.65 972.487 537.65C965.087 537.65 958.687 539.4 953.287 542.9C947.987 546.4 944.537 551.6 942.938 558.5C942.638 560 942.487 561.55 942.487 563.15C942.487 566.75 943.337 570.2 945.037 573.5C946.837 576.7 949.538 579.35 953.138 581.45C956.738 583.45 961.188 584.45 966.487 584.45C971.187 584.45 975.588 583.5 979.688 581.6C983.787 579.6 987.338 576.8 990.338 573.2C991.738 576.9 994.288 579.7 997.987 581.6C1001.69 583.5 1006.14 584.45 1011.34 584.45C1015.64 584.45 1019.59 583.55 1023.19 581.75C1026.79 579.95 1029.64 577.65 1031.74 574.85C1033.94 572.05 1034.99 569.3 1034.89 566.6C1034.89 565.7 1034.69 564.9 1034.29 564.2C1033.99 563.5 1033.59 563.151 1033.09 563.15C1032.79 563.15 1032.19 563.7 1031.29 564.8C1030.49 565.8 1029.49 566.3 1028.29 566.3C1026.99 566.3 1026.34 565.5 1026.34 563.9C1026.34 563.301 1026.39 562.8 1026.49 562.4L1032.64 541.7C1033.84 537.5 1034.44 533.75 1034.44 530.45C1034.44 521.75 1030.99 515.3 1024.09 511.1C1017.19 506.8 1007.99 504.65 996.487 504.65ZM1304.84 504.65C1293.34 504.65 1284.79 506.3 1279.19 509.6C1273.59 512.9 1270.79 517.05 1270.79 522.05C1270.79 525.25 1272.14 527.95 1274.84 530.15C1277.64 532.25 1281.49 533.3 1286.39 533.3C1291.59 533.3 1295.59 531.95 1298.39 529.25C1301.19 526.55 1302.59 523.35 1302.59 519.65C1302.59 517.95 1302.29 516.3 1301.69 514.7C1304.79 514.7 1307.09 515.3 1308.59 516.5C1310.09 517.7 1310.89 519.5 1310.99 521.9C1310.99 524.2 1310.34 527.451 1309.04 531.65L1305.29 541.55C1297.29 538.95 1289.14 537.65 1280.84 537.65C1273.44 537.65 1267.04 539.4 1261.64 542.9C1256.34 546.4 1252.89 551.6 1251.29 558.5C1250.99 560 1250.84 561.55 1250.84 563.15C1250.84 566.75 1251.69 570.2 1253.39 573.5C1255.19 576.7 1257.89 579.35 1261.49 581.45C1265.09 583.45 1269.54 584.45 1274.84 584.45C1279.54 584.45 1283.94 583.5 1288.04 581.6C1292.14 579.6 1295.69 576.8 1298.69 573.2C1300.09 576.9 1302.64 579.7 1306.34 581.6C1310.04 583.5 1314.49 584.45 1319.69 584.45C1323.99 584.45 1327.94 583.55 1331.54 581.75C1335.14 579.95 1337.99 577.65 1340.09 574.85C1342.29 572.05 1343.34 569.3 1343.24 566.6C1343.24 565.7 1343.04 564.9 1342.64 564.2C1342.34 563.5 1341.94 563.151 1341.44 563.15C1341.14 563.15 1340.54 563.7 1339.64 564.8C1338.84 565.8 1337.84 566.3 1336.64 566.3C1335.34 566.3 1334.69 565.5 1334.69 563.9C1334.69 563.301 1334.74 562.8 1334.84 562.4L1340.99 541.7C1342.19 537.5 1342.79 533.75 1342.79 530.45C1342.79 521.75 1339.34 515.3 1332.44 511.1C1325.54 506.8 1316.34 504.65 1304.84 504.65ZM1395.74 503.9C1383.64 503.9 1373.34 507.05 1364.84 513.35C1356.44 519.55 1350.99 528.8 1348.49 541.1C1347.69 545.099 1347.29 548.6 1347.29 551.6C1347.29 562.3 1350.84 570.45 1357.94 576.05C1365.04 581.65 1374.14 584.45 1385.24 584.45C1392.74 584.45 1399.14 583.1 1404.44 580.4C1409.74 577.7 1413.74 574.45 1416.44 570.65C1419.14 566.75 1420.44 563.05 1420.34 559.55C1420.34 558.25 1419.79 557.6 1418.69 557.6C1417.69 557.6 1415.79 558.1 1412.99 559.1C1409.59 560.2 1406.79 561.05 1404.59 561.65C1402.39 562.15 1400.09 562.4 1397.69 562.4C1392.49 562.4 1388.44 561.35 1385.54 559.25C1382.64 557.15 1381.24 553.5 1381.34 548.3C1385.44 548.9 1389.84 549.2 1394.54 549.2C1403.84 549.2 1411.89 547.8 1418.69 545C1425.59 542.1 1429.79 537.35 1431.29 530.75C1431.69 529.15 1431.89 527.4 1431.89 525.5C1431.89 519.2 1429.04 514.05 1423.34 510.05C1417.64 505.95 1408.44 503.9 1395.74 503.9ZM1537.31 504.65C1525.81 504.65 1517.26 506.3 1511.66 509.6C1506.06 512.9 1503.26 517.05 1503.26 522.05C1503.26 525.25 1504.61 527.95 1507.31 530.15C1510.11 532.25 1513.96 533.3 1518.86 533.3C1524.06 533.3 1528.06 531.95 1530.86 529.25C1533.66 526.55 1535.06 523.35 1535.06 519.65C1535.06 517.95 1534.76 516.3 1534.16 514.7C1537.26 514.7 1539.56 515.3 1541.06 516.5C1542.56 517.7 1543.36 519.5 1543.46 521.9C1543.46 524.2 1542.81 527.451 1541.51 531.65L1537.76 541.55C1529.76 538.95 1521.61 537.65 1513.31 537.65C1505.91 537.65 1499.51 539.4 1494.11 542.9C1488.81 546.4 1485.36 551.6 1483.76 558.5C1483.46 560 1483.31 561.55 1483.31 563.15C1483.31 566.75 1484.16 570.2 1485.86 573.5C1487.66 576.7 1490.36 579.35 1493.96 581.45C1497.56 583.45 1502.01 584.45 1507.31 584.45C1512.01 584.45 1516.41 583.5 1520.51 581.6C1524.61 579.6 1528.16 576.8 1531.16 573.2C1532.56 576.9 1535.11 579.7 1538.81 581.6C1542.51 583.5 1546.96 584.45 1552.16 584.45C1556.46 584.45 1560.41 583.55 1564.01 581.75C1567.61 579.95 1570.46 577.65 1572.56 574.85C1574.76 572.05 1575.81 569.3 1575.71 566.6C1575.71 565.7 1575.51 564.9 1575.11 564.2C1574.81 563.5 1574.41 563.151 1573.91 563.15C1573.61 563.15 1573.01 563.7 1572.11 564.8C1571.31 565.8 1570.31 566.3 1569.11 566.3C1567.81 566.3 1567.16 565.5 1567.16 563.9C1567.16 563.301 1567.21 562.8 1567.31 562.4L1573.46 541.7C1574.66 537.5 1575.26 533.75 1575.26 530.45C1575.26 521.75 1571.81 515.3 1564.91 511.1C1558.01 506.8 1548.81 504.65 1537.31 504.65ZM1602.6 553.7C1599.4 553.7 1596.5 554.55 1593.9 556.25C1591.4 557.85 1589.45 559.95 1588.05 562.55C1586.65 565.15 1585.95 567.8 1585.95 570.5C1586.05 574.4 1587.45 577.7 1590.15 580.4C1592.85 583.1 1596.15 584.45 1600.05 584.45C1603.25 584.45 1606.1 583.65 1608.6 582.05C1611.2 580.35 1613.2 578.2 1614.6 575.6C1616.1 573 1616.85 570.35 1616.85 567.65C1616.85 563.75 1615.45 560.45 1612.65 557.75C1609.95 555.05 1606.6 553.7 1602.6 553.7ZM313.65 484.1C310.85 484.1 308.75 484.4 307.35 485C305.95 485.5 305.05 486.4 304.65 487.7C304.45 488.5 304.35 489 304.35 489.2C304.35 489.8 304.5 490.4 304.8 491C305.1 491.5 305.45 492 305.85 492.5C306.45 493.5 306.9 494.4 307.2 495.2C307.6 495.9 307.8 496.801 307.8 497.9C307.8 499.1 307.6 500.351 307.2 501.65L288.75 566.3C288.05 568.7 287.2 570.5 286.2 571.7C285.2 572.8 283.9 573.8 282.3 574.7C281.6 575.1 280.9 575.6 280.2 576.2C279.5 576.7 278.95 577.35 278.55 578.15C278.25 578.85 278.1 579.5 278.1 580.1C278.1 581.3 278.7 582.25 279.9 582.95C281 583.65 282.6 584 284.7 584H319.95C322.75 584 324.85 583.75 326.25 583.25C327.65 582.65 328.6 581.65 329.1 580.25C329.3 579.45 329.4 578.95 329.4 578.75C329.4 578.05 329.15 577.4 328.65 576.8C328.25 576.1 328 575.7 327.9 575.6C327.201 574.5 326.65 573.6 326.25 572.9C325.95 572.2 325.8 571.25 325.8 570.05C325.8 568.85 326 567.6 326.4 566.3L333.6 541.25H360.15L352.95 566.3C352.25 568.7 351.4 570.5 350.4 571.7C349.4 572.8 348.1 573.8 346.5 574.7C345.8 575.1 345.1 575.6 344.4 576.2C343.7 576.7 343.15 577.35 342.75 578.15C342.45 578.85 342.3 579.5 342.3 580.1C342.3 581.3 342.85 582.25 343.95 582.95C345.15 583.65 346.801 584 348.9 584H384.15C386.95 584 389.05 583.75 390.45 583.25C391.85 582.65 392.8 581.65 393.3 580.25C393.5 579.45 393.6 578.95 393.6 578.75C393.6 578.05 393.35 577.4 392.85 576.8C392.45 576.1 392.2 575.7 392.1 575.6C391.4 574.5 390.85 573.6 390.45 572.9C390.15 572.2 390 571.25 390 570.05C390 568.85 390.2 567.6 390.6 566.3L409.05 501.65C409.75 499.35 410.6 497.65 411.6 496.55C412.6 495.45 413.9 494.45 415.5 493.55C415.7 493.35 416 493.15 416.4 492.95C416.9 492.65 417.4 492.25 417.9 491.75C418.5 491.15 418.95 490.5 419.25 489.8C419.55 489 419.7 488.35 419.7 487.85C419.7 486.75 419.1 485.85 417.9 485.15C416.8 484.45 415.2 484.1 413.1 484.1H377.85C375.05 484.1 372.95 484.4 371.55 485C370.15 485.5 369.25 486.4 368.85 487.7C368.65 488.5 368.55 489 368.55 489.2C368.55 489.8 368.7 490.4 369 491C369.3 491.5 369.65 492 370.05 492.5C370.65 493.5 371.1 494.4 371.4 495.2C371.8 495.9 372 496.801 372 497.9C372 499.1 371.8 500.351 371.4 501.65L364.35 526.25H337.8L344.85 501.65C345.55 499.35 346.4 497.65 347.4 496.55C348.4 495.45 349.7 494.45 351.3 493.55C351.5 493.35 351.8 493.15 352.2 492.95C352.7 492.65 353.2 492.25 353.7 491.75C354.3 491.15 354.75 490.5 355.05 489.8C355.35 489 355.5 488.35 355.5 487.85C355.5 486.75 354.9 485.85 353.7 485.15C352.6 484.45 351 484.1 348.9 484.1H313.65ZM446.548 504.65C440.348 504.65 434.397 505.55 428.697 507.35C422.998 509.049 419.848 511.05 419.248 513.35C418.948 514.35 418.998 515.15 419.397 515.75C419.797 516.35 420.498 517.05 421.498 517.85C422.498 518.55 423.248 519.25 423.748 519.95C424.248 520.55 424.498 521.4 424.498 522.5C424.498 523.1 424.348 523.85 424.048 524.75L410.998 568.1C410.298 570.5 409.447 572.25 408.447 573.35C407.447 574.45 406.197 575.4 404.697 576.2C402.998 577.1 401.948 578.15 401.548 579.35C401.148 580.75 401.548 581.9 402.748 582.8C403.948 583.6 405.848 584 408.447 584H442.647C445.747 584 448.048 583.7 449.548 583.1C451.048 582.5 452.048 581.55 452.548 580.25C452.748 579.55 452.697 579 452.397 578.6C452.097 578.1 451.597 577.5 450.897 576.8C449.998 576.1 449.298 575.4 448.798 574.7C448.298 573.9 448.048 572.85 448.048 571.55C448.048 570.65 448.198 569.6 448.498 568.4L462.298 523.55C462.998 521.45 463.348 519.25 463.348 516.95C463.348 513.15 461.998 510.15 459.298 507.95C456.598 505.75 452.348 504.65 446.548 504.65ZM567.061 484.1C564.261 484.1 562.161 484.4 560.761 485C559.461 485.5 558.611 486.4 558.211 487.7C558.011 488.5 557.911 489.05 557.911 489.35C557.911 490.15 558.361 491.2 559.261 492.5C559.861 493.5 560.311 494.4 560.611 495.2C561.011 495.9 561.211 496.801 561.211 497.9C561.211 499.1 561.011 500.351 560.611 501.65L542.311 566.3C541.611 568.7 540.761 570.45 539.761 571.55C538.761 572.55 537.461 573.55 535.861 574.55C535.661 574.65 535.111 575 534.211 575.6C533.311 576.2 532.661 577.05 532.261 578.15C531.961 578.85 531.811 579.5 531.811 580.1C531.811 581.3 532.411 582.25 533.611 582.95C534.711 583.65 536.311 584 538.411 584H573.661C576.461 584 578.561 583.75 579.961 583.25C581.361 582.65 582.261 581.65 582.661 580.25C582.861 579.45 582.961 578.95 582.961 578.75C582.961 577.95 582.511 576.9 581.611 575.6C580.911 574.7 580.361 573.85 579.961 573.05C579.661 572.25 579.511 571.25 579.511 570.05C579.511 568.85 579.711 567.6 580.111 566.3L598.261 501.65C598.961 499.35 599.811 497.65 600.811 496.55C601.811 495.45 603.111 494.45 604.711 493.55C604.911 493.35 605.211 493.15 605.611 492.95C606.111 492.65 606.611 492.25 607.111 491.75C607.711 491.15 608.161 490.5 608.461 489.8C608.761 489 608.911 488.35 608.911 487.85C608.911 486.65 608.311 485.75 607.111 485.15C606.011 484.45 604.411 484.1 602.311 484.1H567.061ZM1476.68 473.15C1470.48 473.15 1464.53 474 1458.83 475.7C1453.13 477.4 1449.98 479.4 1449.38 481.7C1449.08 482.7 1449.13 483.5 1449.53 484.1C1450.03 484.7 1450.78 485.4 1451.78 486.2C1452.68 486.9 1453.38 487.6 1453.88 488.3C1454.48 489 1454.78 489.9 1454.78 491C1454.78 491.6 1454.63 492.35 1454.33 493.25L1431.53 568.1C1430.83 570.499 1429.98 572.25 1428.98 573.35C1427.98 574.45 1426.73 575.4 1425.23 576.2C1423.53 577.1 1422.48 578.15 1422.08 579.35C1421.68 580.75 1422.08 581.9 1423.28 582.8C1424.48 583.6 1426.38 584 1428.98 584H1463.18C1466.28 584 1468.58 583.7 1470.08 583.1C1471.58 582.5 1472.58 581.55 1473.08 580.25C1473.28 579.55 1473.23 579 1472.93 578.6C1472.63 578.1 1472.13 577.5 1471.43 576.8C1470.53 576.1 1469.83 575.4 1469.33 574.7C1468.83 573.9 1468.58 572.85 1468.58 571.55C1468.58 570.65 1468.73 569.6 1469.03 568.4L1492.58 491.9C1493.28 489.8 1493.63 487.65 1493.63 485.45C1493.63 481.65 1492.23 478.65 1489.43 476.45C1486.73 474.25 1482.48 473.15 1476.68 473.15ZM1101.98 525.05C1103.18 525.05 1104.08 525.4 1104.68 526.1C1105.38 526.7 1105.73 528.05 1105.73 530.15C1105.73 533.55 1104.53 539.7 1102.13 548.6C1099.53 557.9 1096.98 564.1 1094.48 567.2C1092.08 570.2 1089.53 571.7 1086.83 571.7C1085.13 571.7 1083.68 571.1 1082.48 569.9L1094.33 530.6C1095.73 528.6 1097.13 527.2 1098.53 526.4C1099.93 525.5 1101.08 525.05 1101.98 525.05ZM988.088 550.1C990.188 550.1 992.087 550.25 993.787 550.55L990.638 559.4C989.938 561.5 988.787 563.1 987.188 564.2C985.688 565.2 984.287 565.7 982.987 565.7C981.587 565.7 980.487 565.2 979.688 564.2C978.988 563.2 978.638 561.9 978.638 560.3C978.638 557.8 979.488 555.5 981.188 553.4C982.987 551.2 985.288 550.1 988.088 550.1ZM1296.44 550.1C1298.54 550.1 1300.44 550.25 1302.14 550.55L1298.99 559.4C1298.29 561.5 1297.14 563.1 1295.54 564.2C1294.04 565.2 1292.64 565.7 1291.34 565.7C1289.94 565.7 1288.84 565.2 1288.04 564.2C1287.34 563.2 1286.99 561.9 1286.99 560.3C1286.99 557.8 1287.84 555.5 1289.54 553.4C1291.34 551.2 1293.64 550.1 1296.44 550.1ZM1528.91 550.1C1531.01 550.1 1532.91 550.25 1534.61 550.55L1531.46 559.4C1530.76 561.5 1529.61 563.1 1528.01 564.2C1526.51 565.2 1525.11 565.7 1523.81 565.7C1522.41 565.7 1521.31 565.2 1520.51 564.2C1519.81 563.2 1519.46 561.9 1519.46 560.3C1519.46 557.8 1520.31 555.5 1522.01 553.4C1523.81 551.2 1526.11 550.1 1528.91 550.1ZM1625.7 472.55C1611.3 472.55 1603.75 480 1603.05 494.9L1601.1 542.45C1600.9 547.15 1602.75 549.5 1606.65 549.5C1608.45 549.5 1609.95 549.05 1611.15 548.15C1612.45 547.15 1613.7 545.5 1614.9 543.2L1638.45 501.2C1641.55 495.6 1643.1 490.6 1643.1 486.2C1643.1 481.9 1641.55 478.55 1638.45 476.15C1635.45 473.75 1631.2 472.55 1625.7 472.55ZM1394.39 516.35C1395.89 516.35 1396.69 517.75 1396.79 520.55C1396.89 525.35 1395.84 529.7 1393.64 533.6C1391.44 537.499 1388.24 539.45 1384.04 539.45C1383.34 539.45 1382.79 539.4 1382.39 539.3C1383.39 534.5 1384.59 530.35 1385.99 526.85C1387.49 523.35 1388.99 520.75 1390.49 519.05C1391.99 517.25 1393.29 516.35 1394.39 516.35ZM897.369 499.85C903.169 499.85 906.069 502.5 906.069 507.8C906.069 509 905.819 510.75 905.319 513.05C904.019 518.15 902.219 521.65 899.919 523.55C897.719 525.45 894.669 526.4 890.77 526.4H884.469L891.069 499.85H897.369ZM631.155 479.75C627.855 479.75 625.105 480.5 622.905 482C620.705 483.4 619.205 485.45 618.405 488.15C618.105 489.15 617.955 490.2 617.955 491.3C617.955 493.1 618.355 494.7 619.155 496.1C619.955 497.5 621.156 499.25 622.756 501.35C623.956 502.85 624.806 504.05 625.306 504.95C625.906 505.85 626.205 506.75 626.205 507.65C626.205 509.05 625.705 510.25 624.705 511.25C623.705 512.25 622.105 513.55 619.905 515.15C618.005 516.45 616.605 517.5 615.705 518.3C614.805 519 614.205 519.9 613.905 521C613.805 521.3 613.756 521.75 613.756 522.35C613.756 524.75 615.805 525.95 619.905 525.95C623.405 525.95 627.005 525.15 630.705 523.55C634.405 521.85 637.655 519.4 640.455 516.2C643.355 512.9 645.355 509 646.455 504.5C647.055 502.1 647.355 499.85 647.355 497.75C647.355 492.35 645.756 488 642.556 484.7C639.356 481.4 635.555 479.75 631.155 479.75ZM456.598 471.5C453.498 471.5 450.748 472.3 448.348 473.9C445.948 475.5 444.098 477.55 442.798 480.05C441.498 482.45 440.848 484.9 440.848 487.4C440.948 491.2 442.248 494.4 444.748 497C447.348 499.5 450.548 500.75 454.348 500.75C457.348 500.75 460.047 500 462.447 498.5C464.947 496.9 466.847 494.85 468.147 492.35C469.547 489.85 470.248 487.3 470.248 484.7C470.248 481 468.948 477.9 466.348 475.4C463.748 472.8 460.498 471.5 456.598 471.5Z" fill="#E6DDD6"/>
</svg>
